<mxfile>
    <diagram id="zRiZhJNBTAvJ8HZTbkJA" name="Page-1">
        <mxGraphModel dx="820" dy="1129" grid="1" gridSize="10" guides="1" tooltips="1" connect="1" arrows="1" fold="1" page="1" pageScale="1" pageWidth="1169" pageHeight="827" background="#283618" math="0" shadow="0">
            <root>
                <mxCell id="0"/>
                <mxCell id="1" parent="0"/>
                <mxCell id="43" value="ir.ac.kntu.models.Sprite" style="swimlane;fontStyle=0;childLayout=stackLayout;horizontal=1;startSize=30;fillColor=none;horizontalStack=0;resizeParent=1;resizeParentMax=0;resizeLast=0;collapsible=1;marginBottom=0;strokeColor=#DDA15E;fontColor=#FEFAE0;fontFamily=Lucida Console;align=center;arcSize=0;rounded=1;" parent="1" vertex="1">
                    <mxGeometry x="860" y="10" width="180" height="30" as="geometry"/>
                </mxCell>
                <mxCell id="150" value="ir.ac.kntu.models.Object" style="swimlane;fontStyle=0;childLayout=stackLayout;horizontal=1;startSize=30;fillColor=none;horizontalStack=0;resizeParent=1;resizeParentMax=0;resizeLast=0;collapsible=1;marginBottom=0;strokeColor=#DDA15E;fontColor=#FEFAE0;fontFamily=Lucida Console;align=center;rounded=1;" parent="1" vertex="1">
                    <mxGeometry x="620" y="10" width="180" height="30" as="geometry"/>
                </mxCell>
                <mxCell id="247" style="edgeStyle=orthogonalEdgeStyle;curved=0;rounded=1;sketch=0;orthogonalLoop=1;jettySize=auto;html=1;fontColor=#FEFAE0;strokeColor=#DDA15E;fillColor=#BC6C25;" edge="1" parent="1" source="180" target="43">
                    <mxGeometry relative="1" as="geometry"/>
                </mxCell>
                <mxCell id="180" value="Balloon" style="swimlane;fontStyle=0;childLayout=stackLayout;horizontal=1;startSize=26;fillColor=none;horizontalStack=0;resizeParent=1;resizeParentMax=0;resizeLast=0;collapsible=1;marginBottom=0;strokeColor=#DDA15E;fontColor=#FEFAE0;fontFamily=Lucida Console;align=center;rounded=1;" parent="1" vertex="1">
                    <mxGeometry x="860" y="60" width="180" height="648" as="geometry"/>
                </mxCell>
                <mxCell id="181" value="- state" style="text;strokeColor=none;fillColor=none;align=left;verticalAlign=top;spacingLeft=4;spacingRight=4;overflow=hidden;rotatable=0;points=[[0,0.5],[1,0.5]];portConstraint=eastwest;fontColor=#FEFAE0;fontFamily=Lucida Console;rounded=1;" parent="180" vertex="1">
                    <mxGeometry y="26" width="180" height="26" as="geometry"/>
                </mxCell>
                <mxCell id="182" value="- pathFinder" style="text;strokeColor=none;fillColor=none;align=left;verticalAlign=top;spacingLeft=4;spacingRight=4;overflow=hidden;rotatable=0;points=[[0,0.5],[1,0.5]];portConstraint=eastwest;fontColor=#FEFAE0;fontFamily=Lucida Console;rounded=1;" parent="180" vertex="1">
                    <mxGeometry y="52" width="180" height="26" as="geometry"/>
                </mxCell>
                <mxCell id="183" value="- out" style="text;strokeColor=none;fillColor=none;align=left;verticalAlign=top;spacingLeft=4;spacingRight=4;overflow=hidden;rotatable=0;points=[[0,0.5],[1,0.5]];portConstraint=eastwest;fontColor=#FEFAE0;fontFamily=Lucida Console;rounded=1;" parent="180" vertex="1">
                    <mxGeometry y="78" width="180" height="26" as="geometry"/>
                </mxCell>
                <mxCell id="184" value="- cycle" style="text;strokeColor=none;fillColor=none;align=left;verticalAlign=top;spacingLeft=4;spacingRight=4;overflow=hidden;rotatable=0;points=[[0,0.5],[1,0.5]];portConstraint=eastwest;fontColor=#FEFAE0;fontFamily=Lucida Console;rounded=1;" parent="180" vertex="1">
                    <mxGeometry y="104" width="180" height="26" as="geometry"/>
                </mxCell>
                <mxCell id="185" value="- inflateMask" style="text;strokeColor=none;fillColor=none;align=left;verticalAlign=top;spacingLeft=4;spacingRight=4;overflow=hidden;rotatable=0;points=[[0,0.5],[1,0.5]];portConstraint=eastwest;fontColor=#FEFAE0;fontFamily=Lucida Console;rounded=1;" parent="180" vertex="1">
                    <mxGeometry y="130" width="180" height="26" as="geometry"/>
                </mxCell>
                <mxCell id="186" value="- friends" style="text;strokeColor=none;fillColor=none;align=left;verticalAlign=top;spacingLeft=4;spacingRight=4;overflow=hidden;rotatable=0;points=[[0,0.5],[1,0.5]];portConstraint=eastwest;fontColor=#FEFAE0;fontFamily=Lucida Console;rounded=1;" parent="180" vertex="1">
                    <mxGeometry y="156" width="180" height="26" as="geometry"/>
                </mxCell>
                <mxCell id="187" value="- target" style="text;strokeColor=none;fillColor=none;align=left;verticalAlign=top;spacingLeft=4;spacingRight=4;overflow=hidden;rotatable=0;points=[[0,0.5],[1,0.5]];portConstraint=eastwest;fontColor=#FEFAE0;fontFamily=Lucida Console;rounded=1;" parent="180" vertex="1">
                    <mxGeometry y="182" width="180" height="26" as="geometry"/>
                </mxCell>
                <mxCell id="189" value="- currentPath" style="text;strokeColor=none;fillColor=none;align=left;verticalAlign=top;spacingLeft=4;spacingRight=4;overflow=hidden;rotatable=0;points=[[0,0.5],[1,0.5]];portConstraint=eastwest;fontColor=#FEFAE0;fontFamily=Lucida Console;rounded=1;" parent="180" vertex="1">
                    <mxGeometry y="208" width="180" height="26" as="geometry"/>
                </mxCell>
                <mxCell id="190" value="- counter" style="text;strokeColor=none;fillColor=none;align=left;verticalAlign=top;spacingLeft=4;spacingRight=4;overflow=hidden;rotatable=0;points=[[0,0.5],[1,0.5]];portConstraint=eastwest;fontColor=#FEFAE0;fontFamily=Lucida Console;rounded=1;" parent="180" vertex="1">
                    <mxGeometry y="234" width="180" height="26" as="geometry"/>
                </mxCell>
                <mxCell id="191" value="- inflateOrder" style="text;strokeColor=none;fillColor=none;align=left;verticalAlign=top;spacingLeft=4;spacingRight=4;overflow=hidden;rotatable=0;points=[[0,0.5],[1,0.5]];portConstraint=eastwest;fontColor=#FEFAE0;fontFamily=Lucida Console;rounded=1;" parent="180" vertex="1">
                    <mxGeometry y="260" width="180" height="26" as="geometry"/>
                </mxCell>
                <mxCell id="188" value="" style="line;strokeWidth=2;html=1;shadow=0;glass=0;sketch=0;fontFamily=Comic Sans MS;fontColor=#FEFAE0;fillColor=none;align=center;strokeColor=#DDA15E;labelBackgroundColor=#283618;rounded=1;" parent="180" vertex="1">
                    <mxGeometry y="286" width="180" height="10" as="geometry"/>
                </mxCell>
                <mxCell id="193" value="- roam()" style="text;strokeColor=none;fillColor=none;align=left;verticalAlign=top;spacingLeft=4;spacingRight=4;overflow=hidden;rotatable=0;points=[[0,0.5],[1,0.5]];portConstraint=eastwest;fontColor=#FEFAE0;fontFamily=Lucida Console;rounded=1;" parent="180" vertex="1">
                    <mxGeometry y="296" width="180" height="26" as="geometry"/>
                </mxCell>
                <mxCell id="192" value="- queryFriends()" style="text;strokeColor=none;fillColor=none;align=left;verticalAlign=top;spacingLeft=4;spacingRight=4;overflow=hidden;rotatable=0;points=[[0,0.5],[1,0.5]];portConstraint=eastwest;fontColor=#FEFAE0;fontFamily=Lucida Console;rounded=1;" parent="180" vertex="1">
                    <mxGeometry y="322" width="180" height="26" as="geometry"/>
                </mxCell>
                <mxCell id="194" value="- follow()" style="text;strokeColor=none;fillColor=none;align=left;verticalAlign=top;spacingLeft=4;spacingRight=4;overflow=hidden;rotatable=0;points=[[0,0.5],[1,0.5]];portConstraint=eastwest;fontColor=#FEFAE0;fontFamily=Lucida Console;rounded=1;" parent="180" vertex="1">
                    <mxGeometry y="348" width="180" height="26" as="geometry"/>
                </mxCell>
                <mxCell id="195" value="+ setTarget()" style="text;strokeColor=none;fillColor=none;align=left;verticalAlign=top;spacingLeft=4;spacingRight=4;overflow=hidden;rotatable=0;points=[[0,0.5],[1,0.5]];portConstraint=eastwest;fontColor=#FEFAE0;fontFamily=Lucida Console;rounded=1;" parent="180" vertex="1">
                    <mxGeometry y="374" width="180" height="26" as="geometry"/>
                </mxCell>
                <mxCell id="196" value="# setInflateOrder()" style="text;strokeColor=none;fillColor=none;align=left;verticalAlign=top;spacingLeft=4;spacingRight=4;overflow=hidden;rotatable=0;points=[[0,0.5],[1,0.5]];portConstraint=eastwest;fontColor=#FEFAE0;fontFamily=Lucida Console;rounded=1;" parent="180" vertex="1">
                    <mxGeometry y="400" width="180" height="26" as="geometry"/>
                </mxCell>
                <mxCell id="198" value="# getInflateOrder()" style="text;strokeColor=none;fillColor=none;align=left;verticalAlign=top;spacingLeft=4;spacingRight=4;overflow=hidden;rotatable=0;points=[[0,0.5],[1,0.5]];portConstraint=eastwest;fontColor=#FEFAE0;fontFamily=Lucida Console;rounded=1;" parent="180" vertex="1">
                    <mxGeometry y="426" width="180" height="26" as="geometry"/>
                </mxCell>
                <mxCell id="197" value="- stoneFalling()" style="text;strokeColor=none;fillColor=none;align=left;verticalAlign=top;spacingLeft=4;spacingRight=4;overflow=hidden;rotatable=0;points=[[0,0.5],[1,0.5]];portConstraint=eastwest;fontColor=#FEFAE0;fontFamily=Lucida Console;rounded=1;" parent="180" vertex="1">
                    <mxGeometry y="452" width="180" height="26" as="geometry"/>
                </mxCell>
                <mxCell id="199" value="+ inflate()" style="text;strokeColor=none;fillColor=none;align=left;verticalAlign=top;spacingLeft=4;spacingRight=4;overflow=hidden;rotatable=0;points=[[0,0.5],[1,0.5]];portConstraint=eastwest;fontColor=#FEFAE0;fontFamily=Lucida Console;rounded=1;" parent="180" vertex="1">
                    <mxGeometry y="478" width="180" height="26" as="geometry"/>
                </mxCell>
                <mxCell id="200" value="+ getInflateMask()" style="text;strokeColor=none;fillColor=none;align=left;verticalAlign=top;spacingLeft=4;spacingRight=4;overflow=hidden;rotatable=0;points=[[0,0.5],[1,0.5]];portConstraint=eastwest;fontColor=#FEFAE0;fontFamily=Lucida Console;rounded=1;" parent="180" vertex="1">
                    <mxGeometry y="504" width="180" height="26" as="geometry"/>
                </mxCell>
                <mxCell id="207" value="&lt;&lt;enumeration&gt;&gt;&#10;State" style="swimlane;fontStyle=0;childLayout=stackLayout;horizontal=1;startSize=40;fillColor=none;horizontalStack=0;resizeParent=1;resizeParentMax=0;resizeLast=0;collapsible=1;marginBottom=0;strokeColor=#DDA15E;fontColor=#FEFAE0;fontFamily=Lucida Console;align=center;rounded=1;" parent="180" vertex="1">
                    <mxGeometry y="530" width="180" height="118" as="geometry"/>
                </mxCell>
                <mxCell id="208" value="ROAM" style="text;strokeColor=none;fillColor=none;align=left;verticalAlign=top;spacingLeft=4;spacingRight=4;overflow=hidden;rotatable=0;points=[[0,0.5],[1,0.5]];portConstraint=eastwest;fontColor=#FEFAE0;fontFamily=Lucida Console;rounded=1;" parent="207" vertex="1">
                    <mxGeometry y="40" width="180" height="26" as="geometry"/>
                </mxCell>
                <mxCell id="209" value="FOLLOW" style="text;strokeColor=none;fillColor=none;align=left;verticalAlign=top;spacingLeft=4;spacingRight=4;overflow=hidden;rotatable=0;points=[[0,0.5],[1,0.5]];portConstraint=eastwest;fontColor=#FEFAE0;fontFamily=Lucida Console;rounded=1;" parent="207" vertex="1">
                    <mxGeometry y="66" width="180" height="26" as="geometry"/>
                </mxCell>
                <mxCell id="217" value="ESCAPE" style="text;strokeColor=none;fillColor=none;align=left;verticalAlign=top;spacingLeft=4;spacingRight=4;overflow=hidden;rotatable=0;points=[[0,0.5],[1,0.5]];portConstraint=eastwest;fontColor=#FEFAE0;fontFamily=Lucida Console;rounded=1;" parent="207" vertex="1">
                    <mxGeometry y="92" width="180" height="26" as="geometry"/>
                </mxCell>
                <mxCell id="249" style="edgeStyle=orthogonalEdgeStyle;curved=0;rounded=1;sketch=0;orthogonalLoop=1;jettySize=auto;html=1;fontColor=#FEFAE0;strokeColor=#DDA15E;fillColor=#BC6C25;" edge="1" parent="1" source="218" target="180">
                    <mxGeometry relative="1" as="geometry"/>
                </mxCell>
                <mxCell id="218" value="NormalBalloon" style="swimlane;fontStyle=0;childLayout=stackLayout;horizontal=1;startSize=30;fillColor=none;horizontalStack=0;resizeParent=1;resizeParentMax=0;resizeLast=0;collapsible=1;marginBottom=0;strokeColor=#DDA15E;fontColor=#FEFAE0;fontFamily=Lucida Console;align=center;rounded=1;" parent="1" vertex="1">
                    <mxGeometry x="960" y="740" width="180" height="30" as="geometry"/>
                </mxCell>
                <mxCell id="248" style="edgeStyle=orthogonalEdgeStyle;curved=0;rounded=1;sketch=0;orthogonalLoop=1;jettySize=auto;html=1;fontColor=#FEFAE0;strokeColor=#DDA15E;fillColor=#BC6C25;" edge="1" parent="1" source="232" target="180">
                    <mxGeometry relative="1" as="geometry">
                        <Array as="points">
                            <mxPoint x="860" y="720"/>
                            <mxPoint x="950" y="720"/>
                        </Array>
                    </mxGeometry>
                </mxCell>
                <mxCell id="232" value="DragonBalloon" style="swimlane;fontStyle=0;childLayout=stackLayout;horizontal=1;startSize=26;fillColor=none;horizontalStack=0;resizeParent=1;resizeParentMax=0;resizeLast=0;collapsible=1;marginBottom=0;strokeColor=#DDA15E;fontColor=#FEFAE0;fontFamily=Lucida Console;align=center;rounded=1;" parent="1" vertex="1">
                    <mxGeometry x="770" y="740" width="180" height="78" as="geometry"/>
                </mxCell>
                <mxCell id="233" value="- counter" style="text;strokeColor=none;fillColor=none;align=left;verticalAlign=top;spacingLeft=4;spacingRight=4;overflow=hidden;rotatable=0;points=[[0,0.5],[1,0.5]];portConstraint=eastwest;fontColor=#FEFAE0;fontFamily=Lucida Console;rounded=1;" parent="232" vertex="1">
                    <mxGeometry y="26" width="180" height="26" as="geometry"/>
                </mxCell>
                <mxCell id="234" value="- fire" style="text;strokeColor=none;fillColor=none;align=left;verticalAlign=top;spacingLeft=4;spacingRight=4;overflow=hidden;rotatable=0;points=[[0,0.5],[1,0.5]];portConstraint=eastwest;fontColor=#FEFAE0;fontFamily=Lucida Console;rounded=1;" parent="232" vertex="1">
                    <mxGeometry y="52" width="180" height="26" as="geometry"/>
                </mxCell>
                <mxCell id="246" style="edgeStyle=orthogonalEdgeStyle;curved=0;sketch=0;orthogonalLoop=1;jettySize=auto;html=1;fontColor=#FEFAE0;strokeColor=#DDA15E;fillColor=#BC6C25;labelBackgroundColor=#283618;" parent="1" source="242" target="150" edge="1">
                    <mxGeometry relative="1" as="geometry"/>
                </mxCell>
                <mxCell id="251" style="edgeStyle=orthogonalEdgeStyle;curved=0;rounded=1;sketch=0;orthogonalLoop=1;jettySize=auto;html=1;entryX=0;entryY=0.5;entryDx=0;entryDy=0;fontColor=#FEFAE0;strokeColor=#DDA15E;fillColor=#BC6C25;endArrow=diamondThin;endFill=1;endSize=10;" edge="1" parent="1" source="242" target="234">
                    <mxGeometry relative="1" as="geometry"/>
                </mxCell>
                <mxCell id="242" value="Fire" style="swimlane;fontStyle=0;childLayout=stackLayout;horizontal=1;startSize=26;fillColor=none;horizontalStack=0;resizeParent=1;resizeParentMax=0;resizeLast=0;collapsible=1;marginBottom=0;strokeColor=#DDA15E;fontColor=#FEFAE0;fontFamily=Lucida Console;align=center;rounded=1;" parent="1" vertex="1">
                    <mxGeometry x="620" y="60" width="180" height="88" as="geometry"/>
                </mxCell>
                <mxCell id="243" value="- counter" style="text;strokeColor=none;fillColor=none;align=left;verticalAlign=top;spacingLeft=4;spacingRight=4;overflow=hidden;rotatable=0;points=[[0,0.5],[1,0.5]];portConstraint=eastwest;fontColor=#FEFAE0;fontFamily=Lucida Console;rounded=1;" parent="242" vertex="1">
                    <mxGeometry y="26" width="180" height="26" as="geometry"/>
                </mxCell>
                <mxCell id="245" value="" style="line;strokeWidth=2;html=1;shadow=0;glass=0;sketch=0;fontFamily=Comic Sans MS;fontColor=#FEFAE0;fillColor=none;align=center;strokeColor=#DDA15E;labelBackgroundColor=#283618;rounded=1;" parent="242" vertex="1">
                    <mxGeometry y="52" width="180" height="10" as="geometry"/>
                </mxCell>
                <mxCell id="244" value="+ isActive()" style="text;strokeColor=none;fillColor=none;align=left;verticalAlign=top;spacingLeft=4;spacingRight=4;overflow=hidden;rotatable=0;points=[[0,0.5],[1,0.5]];portConstraint=eastwest;fontColor=#FEFAE0;fontFamily=Lucida Console;rounded=1;" parent="242" vertex="1">
                    <mxGeometry y="62" width="180" height="26" as="geometry"/>
                </mxCell>
            </root>
        </mxGraphModel>
    </diagram>
</mxfile>